<mxfile host="app.diagrams.net" modified="2022-10-11T20:43:35.566Z" agent="5.0 (Windows NT 10.0; Win64; x64) AppleWebKit/537.36 (KHTML, like Gecko) Chrome/104.0.5112.124 YaBrowser/22.9.2.1501 Yowser/2.5 Safari/537.36" etag="PJor755A97eJwZj7FdKB" version="20.4.0" type="github">
  <diagram id="-KuPMOE5Hod0TVJEZMGN" name="Страница 1">
    <mxGraphModel dx="1185" dy="631" grid="1" gridSize="10" guides="1" tooltips="1" connect="1" arrows="1" fold="1" page="1" pageScale="1" pageWidth="827" pageHeight="1169" math="0" shadow="0">
      <root>
        <mxCell id="0" />
        <mxCell id="1" parent="0" />
        <mxCell id="KT29dadUoP7vNsa1Y9GV-13" style="edgeStyle=orthogonalEdgeStyle;rounded=0;orthogonalLoop=1;jettySize=auto;html=1;dashed=1;strokeColor=#33FF33;" edge="1" parent="1" source="KT29dadUoP7vNsa1Y9GV-9" target="KT29dadUoP7vNsa1Y9GV-8">
          <mxGeometry relative="1" as="geometry" />
        </mxCell>
        <mxCell id="KT29dadUoP7vNsa1Y9GV-15" style="edgeStyle=orthogonalEdgeStyle;rounded=0;orthogonalLoop=1;jettySize=auto;html=1;fillColor=#dae8fc;strokeColor=#0000FF;" edge="1" parent="1" source="KT29dadUoP7vNsa1Y9GV-4" target="KT29dadUoP7vNsa1Y9GV-9">
          <mxGeometry relative="1" as="geometry" />
        </mxCell>
        <mxCell id="KT29dadUoP7vNsa1Y9GV-4" value="MovableRectangle" style="swimlane;fontStyle=1;align=center;verticalAlign=top;childLayout=stackLayout;horizontal=1;startSize=26;horizontalStack=0;resizeParent=1;resizeParentMax=0;resizeLast=0;collapsible=1;marginBottom=0;" vertex="1" parent="1">
          <mxGeometry x="135" y="560" width="300" height="180" as="geometry" />
        </mxCell>
        <mxCell id="KT29dadUoP7vNsa1Y9GV-5" value="- bottomRight: MovablePoint&#xa;- topLeft: MovableLeft&#xa;" style="text;strokeColor=none;fillColor=none;align=left;verticalAlign=top;spacingLeft=4;spacingRight=4;overflow=hidden;rotatable=0;points=[[0,0.5],[1,0.5]];portConstraint=eastwest;" vertex="1" parent="KT29dadUoP7vNsa1Y9GV-4">
          <mxGeometry y="26" width="300" height="44" as="geometry" />
        </mxCell>
        <mxCell id="KT29dadUoP7vNsa1Y9GV-6" value="" style="line;strokeWidth=1;fillColor=none;align=left;verticalAlign=middle;spacingTop=-1;spacingLeft=3;spacingRight=3;rotatable=0;labelPosition=right;points=[];portConstraint=eastwest;" vertex="1" parent="KT29dadUoP7vNsa1Y9GV-4">
          <mxGeometry y="70" width="300" height="8" as="geometry" />
        </mxCell>
        <mxCell id="KT29dadUoP7vNsa1Y9GV-7" value="+ MovablePoint(x: int, y: int, xSpeed: int, ySpeed: int)&#xa;+ moveUp(): void&#xa;+ moveDown(): void&#xa;+ moveRight(): void&#xa;+ moveLeft(): void&#xa;+ toString(): String" style="text;strokeColor=none;fillColor=none;align=left;verticalAlign=top;spacingLeft=4;spacingRight=4;overflow=hidden;rotatable=0;points=[[0,0.5],[1,0.5]];portConstraint=eastwest;" vertex="1" parent="KT29dadUoP7vNsa1Y9GV-4">
          <mxGeometry y="78" width="300" height="102" as="geometry" />
        </mxCell>
        <mxCell id="KT29dadUoP7vNsa1Y9GV-8" value="&lt;p style=&quot;margin:0px;margin-top:4px;text-align:center;&quot;&gt;&lt;i&gt;&amp;lt;&amp;lt;Interface&amp;gt;&amp;gt;&lt;/i&gt;&lt;br&gt;&lt;b&gt;Movable&lt;/b&gt;&lt;/p&gt;&lt;hr size=&quot;1&quot;&gt;&lt;p style=&quot;margin:0px;margin-left:4px;&quot;&gt;&lt;/p&gt;&lt;p style=&quot;margin:0px;margin-left:4px;&quot;&gt;+ moveLeft(): void&lt;br&gt;+ moveRight(): void&lt;/p&gt;&lt;p style=&quot;margin:0px;margin-left:4px;&quot;&gt;+ moveUp(): void&lt;/p&gt;&lt;p style=&quot;margin:0px;margin-left:4px;&quot;&gt;+ moveDown(): void&lt;/p&gt;" style="verticalAlign=top;align=left;overflow=fill;fontSize=12;fontFamily=Helvetica;html=1;" vertex="1" parent="1">
          <mxGeometry x="190" y="80" width="190" height="120" as="geometry" />
        </mxCell>
        <mxCell id="KT29dadUoP7vNsa1Y9GV-9" value="MovablePoint" style="swimlane;fontStyle=1;align=center;verticalAlign=top;childLayout=stackLayout;horizontal=1;startSize=26;horizontalStack=0;resizeParent=1;resizeParentMax=0;resizeLast=0;collapsible=1;marginBottom=0;" vertex="1" parent="1">
          <mxGeometry x="135" y="280" width="300" height="200" as="geometry" />
        </mxCell>
        <mxCell id="KT29dadUoP7vNsa1Y9GV-10" value="~ x: int&#xa;~ y: int&#xa;~ xSpeed: int&#xa;~ ySpeed: int" style="text;strokeColor=none;fillColor=none;align=left;verticalAlign=top;spacingLeft=4;spacingRight=4;overflow=hidden;rotatable=0;points=[[0,0.5],[1,0.5]];portConstraint=eastwest;" vertex="1" parent="KT29dadUoP7vNsa1Y9GV-9">
          <mxGeometry y="26" width="300" height="74" as="geometry" />
        </mxCell>
        <mxCell id="KT29dadUoP7vNsa1Y9GV-11" value="" style="line;strokeWidth=1;fillColor=none;align=left;verticalAlign=middle;spacingTop=-1;spacingLeft=3;spacingRight=3;rotatable=0;labelPosition=right;points=[];portConstraint=eastwest;strokeColor=inherit;" vertex="1" parent="KT29dadUoP7vNsa1Y9GV-9">
          <mxGeometry y="100" width="300" height="8" as="geometry" />
        </mxCell>
        <mxCell id="KT29dadUoP7vNsa1Y9GV-12" value="+ MovablePoint(x: int, y: int, xSpeed: int, ySpeed: int)&#xa;+ moveRight(): void&#xa;+ moveLeft(): void&#xa;+ moveUp(): void&#xa;+ moveDown(): void" style="text;strokeColor=none;fillColor=none;align=left;verticalAlign=top;spacingLeft=4;spacingRight=4;overflow=hidden;rotatable=0;points=[[0,0.5],[1,0.5]];portConstraint=eastwest;" vertex="1" parent="KT29dadUoP7vNsa1Y9GV-9">
          <mxGeometry y="108" width="300" height="92" as="geometry" />
        </mxCell>
      </root>
    </mxGraphModel>
  </diagram>
</mxfile>
